# xmcd
#
# Track frame offsets: 
#        180
#        15153
#        25657
#        36280
#        50575
#        64118
#        75039
#        88538
#        103435
#        112777
#
# Disc length: 1697 seconds
#
# Revision: 0
# Processed by: cddbd v1.5.2PL0 Copyright (c) Steve Scherf et al.
# Submitted via: ExactAudioCopyFreeDBPlugin 1.0
#
DISCID=68069f0a
DTITLE=Dan Hunnicut and Steve Hamby - Rollin on for Jesus
DYEAR=1900
DGENRE=Country
TTITLE0=Rollin on for Jesus
TTITLE1=You Ought to Know
TTITLE2=His Love
TTITLE3=Let the Wind Blow
TTITLE4=Today is the 1st. Day
TTITLE5=Going Home
TTITLE6=Morning After You
TTITLE7=Lord of my Heart
TTITLE8=Are You Ready
TTITLE9=Pockets of Diamonds and Gold
EXTD=
EXTT0=
EXTT1=
EXTT2=
EXTT3=
EXTT4=
EXTT5=
EXTT6=
EXTT7=
EXTT8=
EXTT9=
PLAYORDER=
